<?xml version="1.0" encoding="utf-8"?>
<!-- Generator: Adobe Illustrator 19.2.1, SVG Export Plug-In . SVG Version: 6.00 Build 0)  -->
<svg version="1.1" id="Layer_1" xmlns="http://www.w3.org/2000/svg" xmlns:xlink="http://www.w3.org/1999/xlink" x="0px" y="0px"
	 viewBox="0 0 129.5 150" style="enable-background:new 0 0 129.5 150;" xml:space="preserve">
<style type="text/css">
	.st0{display:none;fill:none;stroke:#FFFFFF;stroke-width:2;stroke-linecap:round;stroke-miterlimit:10;}
	.st1{fill:#5CDBA9;}
	.st2{fill:#5CDBFF;}
	.st3{fill:#42C18E;}
	.st4{fill:#4DC0FF;}
	.st5{fill:#459571;}
	.st6{fill:#457BA4;}
	.st7{fill:#1A9DED;}
	.st8{fill:#1A71ED;}
	.st9{fill:#58595B;}
	.st10{fill:#F9D35B;}
	.st11{fill:#414042;}
	.st12{opacity:0.4;fill:#414042;}
	.st13{fill:#EDDABB;}
	.st14{fill:#DECDB1;}
	.st15{fill:#F8E7D1;}
	.st16{fill:#C4DFED;}
	.st17{fill:#DEF8FF;}
	.st18{fill:#D1F1FF;}
	.st19{fill:#585963;}
	.st20{fill:#FF868A;}
	.st21{fill:#FF9296;}
	.st22{fill:#EC8287;}
	.st23{fill:#272D38;}
	.st24{fill:#F2F2F2;}
	.st25{fill:#59D6D6;}
	.st26{fill:#56C681;}
	.st27{clip-path:url(#SVGID_2_);fill:#E6E6E6;}
	.st28{fill:#54CBCB;}
	.st29{fill:#52BC7A;}
	.st30{fill:#FFD900;}
	.st31{fill:#FFDE00;}
	.st32{fill:#FFA400;}
	.st33{fill:#47413A;}
	.st34{fill:#FFD16A;}
	.st35{fill:#FF888A;}
	.st36{fill:#E1E2E3;}
	.st37{fill:#45AEFF;}
	.st38{fill:#FFC749;}
	.st39{fill:#FF6A71;}
	.st40{fill:#B7B9BB;}
	.st41{fill:#4585FF;}
	.st42{fill:#52597A;}
	.st43{fill:#699BFF;}
	.st44{fill:#64428F;}
	.st45{fill:#FFFFFF;}
	.st46{fill:#5C8BFF;}
	.st47{fill:#D9D9D9;}
	.st48{fill:#49A86E;}
	.st49{fill:#F020D4;}
	.st50{fill:#B363E7;}
	.st51{fill:#FFD684;}
	.st52{fill:#D420C1;}
	.st53{fill:#FFB876;}
	.st54{fill:#A14DD8;}
	.st55{fill:#8248AA;}
	.st56{fill:#77675D;}
	.st57{fill:#C7AB91;}
	.st58{fill:#B59D84;}
	.st59{fill:#675A51;}
	.st60{fill:#9E8774;}
	.st61{fill:#D4B699;}
	.st62{fill:#554650;}
</style>
<g>
	<polyline class="st45" points="127.499,49 127.499,140.48 34.499,140.48 34.499,26 104.499,26 104.499,49 127.499,49 	"/>
	<path class="st26" d="M129.499,48v-0.855L105.301,24H32.499v116.479c0,0,0,0.001,0,0.001s0,0.001,0,0.001V150h97v-9.518
		c0-0.001,0-0.002,0-0.002s0-0.002,0-0.002V49L129.499,48z M102.499,28v23h23v87.48h-89V28H102.499z"/>
	<path class="st26" d="M50.499,70h49c1.105,0,2-0.895,2-2c0-1.105-0.896-2-2-2h-49c-1.105,0-2,0.895-2,2
		C48.499,69.105,49.394,70,50.499,70"/>
	<path class="st26" d="M50.499,87h61c1.105,0,2-0.896,2-2c0-1.104-0.895-2-2-2h-61c-1.105,0-2,0.896-2,2
		C48.499,86.104,49.394,87,50.499,87"/>
	<path class="st26" d="M50.499,104h49c1.105,0,2-0.895,2-2c0-1.105-0.896-2-2-2h-49c-1.105,0-2,0.895-2,2
		C48.499,103.105,49.394,104,50.499,104"/>
	<path class="st26" d="M50.499,121h54c1.104,0,2-0.895,2-2s-0.896-2-2-2h-54c-1.105,0-2,0.895-2,2S49.394,121,50.499,121"/>
	<path class="st47" d="M105.571,24.258l0.29,0.278c0.013,0.012,0.026,0.025,0.04,0.038l4.6,4.4v-0.022L105.571,24.258"/>
	<path class="st47" d="M50.499,121c-1.105,0-2-0.895-2-2s0.895-2,2-2h54c1.104,0,2,0.895,2,2s-0.896,2-2,2H50.499 M50.499,104
		c-1.105,0-2-0.895-2-2c0-1.105,0.895-2,2-2h49c1.105,0,2,0.895,2,2c0,1.105-0.896,2-2,2H50.499 M50.499,70c-1.105,0-2-0.895-2-2
		c0-1.105,0.895-2,2-2h49c1.105,0,2,0.895,2,2c0,1.105-0.896,2-2,2H50.499 M50.499,53c-1.105,0-2-0.895-2-2c0-1.105,0.895-2,2-2h39
		c1.105,0,2,0.895,2,2c0,1.105-0.895,2-2,2H50.499 M102.499,28h-66v104.54H110.5V87H50.499c-1.105,0-2-0.896-2-2
		c0-1.104,0.895-2,2-2H110.5V51h-8.001V28"/>
	<g>
		<path class="st48" d="M105.9,24.573c-0.013-0.013-0.026-0.025-0.04-0.038l-0.29-0.278l-0.27-0.257l-0.749,0h-0.106L32.5,24.008
			V132.54h3.999V28h66v23h8.001v-4V34.508v-5.535L105.9,24.573z"/>
		<path class="st48" d="M50.499,70h49c1.105,0,2-0.895,2-2s-0.896-2-2-2h-49c-1.105,0-2,0.895-2,2S49.394,70,50.499,70z"/>
		<path class="st48" d="M48.499,85c0,1.105,0.895,2,2,2H110.5v-4H50.499C49.394,83,48.499,83.896,48.499,85z"/>
		<path class="st48" d="M50.499,104h49c1.105,0,2-0.895,2-2s-0.896-2-2-2h-49c-1.105,0-2,0.895-2,2S49.394,104,50.499,104z"/>
		<path class="st48" d="M104.499,117h-54c-1.105,0-2,0.895-2,2s0.895,2,2,2h54c1.104,0,2-0.895,2-2S105.603,117,104.499,117z"/>
	</g>
	<path class="st26" d="M50.499,53h39c1.105,0,2-0.895,2-2c0-1.105-0.895-2-2-2h-39c-1.105,0-2,0.895-2,2
		C48.499,52.105,49.394,53,50.499,53"/>
	<path class="st48" d="M89.499,49h-39c-1.105,0-2,0.895-2,2c0,1.105,0.895,2,2,2h39c1.105,0,2-0.895,2-2
		C91.499,49.895,90.603,49,89.499,49"/>
	<polygon class="st45" points="94.499,25 94.499,116.48 1.499,116.48 1.499,2 71.499,2 71.499,25 	"/>
	<g>
		<path class="st42" d="M96.5,24v-0.855L72.302,0H-0.5v116.48V126h97v-9.519c0,0,0-0.001,0-0.001s0-0.001,0-0.001V25L96.5,24z
			 M69.5,4v23h23v87.48h-89V4H69.5z"/>
		<path class="st42" d="M17.5,29h39c1.104,0,2-0.895,2-2c0-1.105-0.896-2-2-2h-39c-1.105,0-2,0.895-2,2
			C15.5,28.105,16.395,29,17.5,29z"/>
		<path class="st42" d="M17.5,46h49c1.104,0,2-0.895,2-2c0-1.105-0.896-2-2-2h-49c-1.105,0-2,0.895-2,2
			C15.5,45.105,16.395,46,17.5,46z"/>
		<path class="st42" d="M17.5,63h61c1.104,0,2-0.895,2-2c0-1.105-0.896-2-2-2h-61c-1.105,0-2,0.895-2,2
			C15.5,62.105,16.395,63,17.5,63z"/>
		<path class="st42" d="M17.5,80h49c1.104,0,2-0.895,2-2c0-1.105-0.896-2-2-2h-49c-1.105,0-2,0.895-2,2
			C15.5,79.105,16.395,80,17.5,80z"/>
		<path class="st42" d="M17.5,97h54c1.104,0,2-0.895,2-2c0-1.105-0.896-2-2-2h-54c-1.105,0-2,0.895-2,2
			C15.5,96.105,16.395,97,17.5,97z"/>
	</g>
</g>
</svg>
