<?xml version="1.0" encoding="utf-8"?>
<!-- Generator: Adobe Illustrator 21.0.0, SVG Export Plug-In . SVG Version: 6.00 Build 0)  -->
<svg version="1.1" id="Layer_1" xmlns="http://www.w3.org/2000/svg" xmlns:xlink="http://www.w3.org/1999/xlink" x="0px" y="0px"
	 viewBox="0 0 140.111 150" style="enable-background:new 0 0 140.111 150;" xml:space="preserve">
<style type="text/css">
	.st0{fill:#FFFFFF;}
	.st1{fill:#6D6E71;}
	.st2{fill:#5A5B5E;}
	.st3{fill:#AEB0B1;}
	.st4{fill:#FFFFFF;stroke:#58595B;stroke-width:4;stroke-linecap:round;stroke-linejoin:round;stroke-miterlimit:10;}
	.st5{fill:#58595B;}
	.st6{fill:#A8724B;}
	.st7{fill:#916341;}
	.st8{fill:#754921;}
	.st9{fill:#FF6B6B;}
	.st10{fill:#FFD57E;}
	.st11{fill:#D9FF93;}
	.st12{fill:#E8E8E8;}
	.st13{fill:#85808A;}
	.st14{fill:#1787FF;}
	.st15{fill:#4DE69F;}
	.st16{fill:#C92A2A;}
	.st17{fill:#00386E;}
	.st18{fill:#231F20;}
	.st19{fill:#CCCCCC;}
	.st20{fill:#A12222;}
	.st21{fill:#002D58;}
	.st22{fill:#1C191A;}
	.st23{fill:#851616;}
	.st24{fill:#B01E1E;}
	.st25{fill:#E32626;}
	.st26{fill:#991919;}
	.st27{fill:#591300;}
	.st28{fill:#FF880F;}
	.st29{fill:#D16F0C;}
	.st30{fill:#F3D9D9;}
	.st31{fill:#ECC6C6;}
	.st32{fill:#E6B6B6;}
	.st33{fill:#F1D2D2;}
	.st34{fill:#E5B0B0;}
	.st35{fill:#D3AEAA;}
	.st36{fill:#F0CFCF;}
	.st37{fill:#F2D4D4;}
	.st38{fill:#B3F294;}
	.st39{fill:#99C4FF;}
	.st40{fill:#D2FFBA;}
	.st41{fill:#BDD9FF;}
	.st42{fill:#7C7E82;}
	.st43{fill:#E06AC6;}
	.st44{fill:#D9B580;}
	.st45{fill:#B556A0;}
	.st46{fill:#AD9166;}
	.st47{fill:#805075;}
	.st48{fill:#7E40B8;}
	.st49{fill:#A9FF8A;}
	.st50{fill:#FFFEA2;}
	.st51{fill:#5CFFEC;}
	.st52{fill:#6B92ED;}
	.st53{fill:#A398E7;}
	.st54{fill:#7F75BD;}
	.st55{fill:#FF564C;}
	.st56{fill:#8A81C4;}
	.st57{fill:#585082;}
	.st58{fill:#339CEE;}
	.st59{fill:#CFCFCF;}
	.st60{fill:#3E314D;}
	.st61{fill:#CF170E;}
	.st62{fill:#FFD49B;}
	.st63{fill:#E0D2C4;}
	.st64{fill:#E3BD8A;}
	.st65{fill:#A39287;}
	.st66{fill:#3F3E40;}
	.st67{fill:#64C2E3;}
	.st68{fill:#16C4C1;}
	.st69{fill:#48484A;}
	.st70{fill:#6BE0EB;}
	.st71{fill:#686A6B;}
	.st72{fill:#34A3C9;}
	.st73{fill:#7A7C7D;}
	.st74{fill:#ED3F45;}
	.st75{fill:#242424;}
	.st76{fill:#D9F1F4;}
	.st77{fill:#6B5C4E;}
	.st78{fill:#EBFFFF;}
	.st79{fill:#9BBECA;}
	.st80{fill:#564A3E;}
	.st81{fill:#B8D9E2;}
	.st82{fill:#645649;}
	.st83{fill:#424244;}
	.st84{fill:#766556;}
	.st85{fill:#353738;}
</style>
<g>
	<g>
		<g>
			<path class="st69" d="M139.007,83.75v22.75c0,3.59-2.91,6.5-6.5,6.5c-1.8,0-3.42-0.73-4.6-1.9c-1.17-1.18-1.9-2.8-1.9-4.6V85.78
				c0-13.69-11.09-24.78-24.78-24.78h-9.77h-71.45V49h84.25C123.447,49,139.007,64.56,139.007,83.75z"/>
		</g>
		<g>
			<path class="st69" d="M93.007,42.6l0.73,6.4h-73.73c-6.78,0-13-6.22-13-13h79.4C90.047,36,93.007,38.96,93.007,42.6z"/>
		</g>
		<g>
			<path class="st76" d="M6.517,80.78c3.12-7.19,7.75-13.57,13.49-18.75V61h71.45c6.36,5.38,11.51,12.16,14.93,19.83l-0.38,0.17h-99
				L6.517,80.78z"/>
		</g>
		<g>
			<path class="st77" d="M111.007,101.97c0.17,18.14-8.53,34.25-22.02,44.28c-1.54,1.15-3.42,1.75-5.34,1.75h-54.28
				c-1.92,0-3.81-0.6-5.35-1.75c-13.35-9.93-22.01-25.83-22.01-43.75c0-7.72,1.61-15.07,4.51-21.72L7.007,81h99l0.38-0.17
				C109.287,87.34,110.937,94.49,111.007,101.97z"/>
		</g>
	</g>
	<g>
		<path class="st78" d="M38.021,62.03V61h-7.006v1.03c-5.74,5.18-10.37,11.56-13.49,18.75l0.49,0.22h7.006l-0.49-0.22
			C27.651,73.59,32.281,67.21,38.021,62.03z"/>
	</g>
	<g>
		<path class="st66" d="M93.007,42.6c0-3.64-2.96-6.6-6.6-6.6h-13.01c3.64,0,6.6,2.96,6.6,6.6l0.73,6.4h13.01L93.007,42.6z"/>
	</g>
	<g>
		<path class="st79" d="M91.457,61H81.449c6.36,5.38,11.51,12.16,14.93,19.83L95.999,81h10.008l0.38-0.17
			C102.967,73.16,97.817,66.38,91.457,61z"/>
	</g>
	<g>
		<g>
			<path class="st80" d="M106.387,80.83l-0.38,0.17h-9.557c2.854,6.465,4.48,13.554,4.549,20.97c0.17,18.14-8.53,34.25-22.02,44.28
				c-1.54,1.15-3.42,1.75-5.34,1.75h10.008c1.92,0,3.8-0.6,5.34-1.75c13.49-10.03,22.19-26.14,22.02-44.28
				C110.937,94.49,109.287,87.34,106.387,80.83z"/>
		</g>
	</g>
	<g>
		<path class="st81" d="M81.449,61H67.437c6.36,5.38,11.51,12.16,14.93,19.83L81.987,81h14.011l0.38-0.17
			C92.959,73.16,87.809,66.38,81.449,61z"/>
	</g>
	<g>
		<g>
			<path class="st82" d="M96.379,80.83L95.999,81h-13.56c2.854,6.465,4.48,13.554,4.549,20.97c0.17,18.14-8.53,34.25-22.02,44.28
				c-1.54,1.15-3.42,1.75-5.34,1.75h14.011c1.92,0,3.8-0.6,5.34-1.75c13.49-10.03,22.19-26.14,22.02-44.28
				C100.929,94.49,99.279,87.34,96.379,80.83z"/>
		</g>
	</g>
	<g>
		<path class="st66" d="M104.257,49H80.183l0.534,12h10.74h9.77c13.69,0,24.78,11.09,24.78,24.78v20.72c0,1.8,0.73,3.42,1.9,4.6
			c1.18,1.17,2.8,1.9,4.6,1.9c3.59,0,6.5-2.91,6.5-6.5V83.75C139.007,64.56,123.447,49,104.257,49z"/>
	</g>
	<g>
		<g>
			<path class="st66" d="M104.257,49h-23.54l0.534,12h10.206h9.77c13.69,0,24.78,11.09,24.78,24.78v20.72c0,1.8,0.73,3.42,1.9,4.6
				c1.18,1.17,2.8,1.9,4.6,1.9c3.59,0,6.5-2.91,6.5-6.5V83.75C139.007,64.56,123.447,49,104.257,49z"/>
		</g>
	</g>
	<g>
		<path class="st83" d="M79.996,42.6c0-3.64-2.96-6.6-6.6-6.6H59.385c3.64,0,6.6,2.96,6.6,6.6l0.73,6.4h14.011L79.996,42.6z"/>
	</g>
	<g>
		<g>
			<polygon class="st69" points="67.249,61.22 81.26,61.22 81.25,61 67.239,61 			"/>
		</g>
		<g>
			<polygon class="st83" points="66.705,49 67.239,61 81.25,61 80.716,49 			"/>
		</g>
	</g>
	<g>
		<g>
			<path class="st84" d="M117.395,80.83l-0.38,0.17h0.451C117.441,80.944,117.42,80.886,117.395,80.83z"/>
		</g>
		<g>
			<path class="st84" d="M20.021,102.5c0-7.636,1.58-14.907,4.421-21.5h-6.426l-0.49-0.22c-2.9,6.65-4.51,14-4.51,21.72
				c0,17.92,8.66,33.82,22.01,43.75c1.54,1.15,3.43,1.75,5.35,1.75h7.006c-1.92,0-3.81-0.6-5.35-1.75
				C28.681,136.32,20.021,120.42,20.021,102.5z"/>
		</g>
	</g>
	<g>
		<path class="st85" d="M104.257,47h-9.25v-4.4c0-4.742-3.857-8.6-8.6-8.6h-79.4c-1.104,0-2,0.896-2,2
			c0,7.681,5.833,14.229,13,14.93v10.244C12.347,66.452,7.743,72.929,4.683,79.98C1.58,87.098,0.007,94.674,0.007,102.5
			c0,16.777,7.606,32.817,20.471,43.5h-5.471c-1.104,0-2,0.896-2,2s0.896,2,2,2h14.36h54.279h11.892c1.104,0,2-0.896,2-2
			s-0.896-2-2-2h-3.014c13.031-10.812,20.641-27.056,20.482-44.049c-0.071-7.576-1.684-14.956-4.794-21.936
			c-2.799-6.279-6.805-12.072-11.687-17.016h4.701c12.562,0,22.78,10.219,22.78,22.78v20.72c0,2.262,0.881,4.396,2.492,6.02
			c1.612,1.6,3.746,2.48,6.008,2.48c4.687,0,8.5-3.813,8.5-8.5V83.75C141.007,63.486,124.52,47,104.257,47z M9.193,38h77.214
			c2.536,0,4.6,2.063,4.6,4.6V47h-71.73C14.439,47,10.127,42.981,9.193,38z M109.007,101.988
			c0.156,16.717-7.773,32.663-21.217,42.659C86.623,145.52,85.151,146,83.646,146H29.367c-1.511,0-2.986-0.48-4.157-1.354
			C11.933,134.77,4.007,119.015,4.007,102.5c0-6.755,1.277-13.303,3.767-19.5h97.35C107.629,89.073,108.945,95.451,109.007,101.988z
			 M103.288,79H9.557c2.914-5.807,6.95-11.119,11.789-15.485c0.167-0.151,0.295-0.328,0.399-0.515h68.947
			C95.865,67.494,100.179,72.966,103.288,79z M137.007,106.5c0,2.481-2.019,4.5-4.5,4.5c-1.199,0-2.333-0.469-3.18-1.309
			c-0.852-0.858-1.32-1.992-1.32-3.191V85.78c0-14.767-12.014-26.78-26.78-26.78h-79.22v-8h71h11.25
			c18.059,0,32.75,14.691,32.75,32.75V106.5z"/>
		<path class="st85" d="M49.007,99h14c1.104,0,2-0.896,2-2s-0.896-2-2-2h-14c-1.104,0-2,0.896-2,2S47.902,99,49.007,99z"/>
		<path class="st85" d="M42.007,108h28c1.104,0,2-0.896,2-2s-0.896-2-2-2h-28c-1.104,0-2,0.896-2,2S40.902,108,42.007,108z"/>
		<path class="st85" d="M49.007,113c-1.104,0-2,0.896-2,2s0.896,2,2,2h14c1.104,0,2-0.896,2-2s-0.896-2-2-2H49.007z"/>
		<path class="st85" d="M42.007,126h28c1.104,0,2-0.896,2-2s-0.896-2-2-2h-28c-1.104,0-2,0.896-2,2S40.902,126,42.007,126z"/>
		<path class="st85" d="M63.007,131h-14c-1.104,0-2,0.896-2,2s0.896,2,2,2h14c1.104,0,2-0.896,2-2S64.111,131,63.007,131z"/>
		<path class="st85" d="M36.987,27c1.104,0,2-0.896,2-2v-8.32v-10c0-1.527,1.242-2.77,2.77-2.77s2.77,1.243,2.77,2.77
			c0,1.069-0.628,2.054-1.6,2.509c-1,0.469-1.43,1.66-0.961,2.66C42.305,12.575,43.026,13,43.777,13c0.285,0,0.573-0.061,0.849-0.19
			c2.369-1.111,3.9-3.518,3.9-6.13c0-3.733-3.037-6.77-6.77-6.77s-6.77,3.037-6.77,6.77v10V25C34.987,26.104,35.883,27,36.987,27z"
			/>
		<path class="st85" d="M22.347,18.811c0.275,0.129,0.563,0.19,0.849,0.19c0.751,0,1.472-0.426,1.812-1.151
			c0.469-1,0.039-2.191-0.961-2.66c-0.972-0.456-1.6-1.44-1.6-2.509c0-1.527,1.242-2.77,2.77-2.77s2.771,1.243,2.771,2.77
			c0,0.035,0.009,0.067,0.01,0.102c-0.007,0.069-0.021,0.137-0.021,0.208v15.7c0,1.104,0.896,2,2,2s2-0.896,2-2v-15.7
			c0-0.035-0.009-0.067-0.01-0.102c0.007-0.069,0.021-0.137,0.021-0.208c0-3.733-3.037-6.77-6.771-6.77
			c-3.732,0-6.77,3.037-6.77,6.77C18.447,15.293,19.978,17.7,22.347,18.811z"/>
		<path class="st85" d="M41.997,20.69v8c0,1.104,0.896,2,2,2s2-0.896,2-2v-8c0-1.527,1.242-2.77,2.77-2.77s2.771,1.243,2.771,2.77
			c0,1.069-0.628,2.054-1.6,2.509c-1,0.469-1.43,1.66-0.961,2.66c0.34,0.726,1.061,1.151,1.812,1.151
			c0.285,0,0.573-0.061,0.849-0.19c2.369-1.111,3.9-3.518,3.9-6.13c0-3.733-3.037-6.77-6.771-6.77
			C45.034,13.92,41.997,16.957,41.997,20.69z"/>
		<path class="st85" d="M94.408,125.756c0.305,0.166,0.633,0.244,0.956,0.244c0.708,0,1.395-0.377,1.758-1.042
			c3.745-6.867,5.685-14.657,5.611-22.529c-0.029-3.12-0.386-6.245-1.062-9.288c-0.238-1.078-1.304-1.763-2.386-1.519
			c-1.078,0.239-1.758,1.307-1.519,2.386c0.614,2.771,0.939,5.616,0.966,8.458c0.067,7.192-1.704,14.308-5.123,20.576
			C93.081,124.012,93.438,125.227,94.408,125.756z"/>
		<path class="st85" d="M7.007,146h-5c-1.104,0-2,0.896-2,2s0.896,2,2,2h5c1.104,0,2-0.896,2-2S8.111,146,7.007,146z"/>
		<path class="st85" d="M108.538,146h-5c-1.104,0-2,0.896-2,2s0.896,2,2,2h5c1.104,0,2-0.896,2-2S109.642,146,108.538,146z"/>
	</g>
</g>
</svg>
