<?xml version="1.0" encoding="utf-8"?>
<!-- Generator: Adobe Illustrator 19.2.1, SVG Export Plug-In . SVG Version: 6.00 Build 0)  -->
<svg version="1.1" id="Layer_1" xmlns="http://www.w3.org/2000/svg" xmlns:xlink="http://www.w3.org/1999/xlink" x="0px" y="0px"
	 viewBox="0 0 150.001 150" style="enable-background:new 0 0 150.001 150;" xml:space="preserve">
<style type="text/css">
	.st0{fill:#B3C471;}
	.st1{fill:#CAD681;}
	.st2{fill:#585948;}
	.st3{fill:#7D1F4D;}
	.st4{fill:#FFFFFF;}
	.st5{fill:#5CD7FF;}
	.st6{fill:#7BF0D3;}
	.st7{fill:#4579B3;}
	.st8{fill:#E75C54;}
	.st9{fill:#FFE75B;}
	.st10{fill:#C55049;}
	.st11{fill:#E3B347;}
	.st12{fill:#A54242;}
	.st13{fill:#F7CC46;}
	.st14{fill:#E5B72D;}
	.st15{fill:#644E35;}
	.st16{opacity:0.2;}
	.st17{fill:#E5A13F;}
</style>
<g>
	<g id="XMLID_3_">
		<g>
			<g>
				<path class="st13" d="M74.976,2.003c40.33,0,73.02,32.69,73.02,73.02c0,40.32-32.69,73.01-73.02,73.01
					c-40.32,0-73.01-32.69-73.01-73.01C1.966,34.693,34.656,2.003,74.976,2.003z"/>
			</g>
		</g>
	</g>
	<g>
		<g>
			<path class="st14" d="M74.976,150.033c-41.36,0-75.01-33.649-75.01-75.01c0-41.366,33.649-75.02,75.01-75.02
				c41.366,0,75.02,33.654,75.02,75.02C149.996,116.384,116.343,150.033,74.976,150.033z M74.976,4.003
				c-39.155,0-71.01,31.859-71.01,71.02c0,39.155,31.854,71.01,71.01,71.01c39.16,0,71.02-31.855,71.02-71.01
				C145.996,35.863,114.136,4.003,74.976,4.003z"/>
		</g>
	</g>
	<g>
		<path class="st15" d="M90.971,120.518H60.001c-2.217,0-4.015-1.797-4.015-4.015v0c0-2.217,1.797-4.015,4.015-4.015h30.971
			c2.217,0,4.015,1.797,4.015,4.015v0C94.986,118.72,93.189,120.518,90.971,120.518z"/>
	</g>
	<g>
		<circle class="st4" cx="42.486" cy="73.503" r="23.5"/>
	</g>
	<g>
		<circle class="st4" cx="108.486" cy="73.503" r="23.5"/>
	</g>
	<g>
		<path class="st15" d="M101.527,51.051c-1.572,1.695-2.541,3.958-2.541,6.452c0,5.247,4.253,9.5,9.5,9.5s9.5-4.253,9.5-9.5
			c0-2.494-0.969-4.757-2.541-6.452c-2.199-0.681-4.536-1.048-6.959-1.048S103.726,50.371,101.527,51.051z"/>
	</g>
	<g>
		<path class="st15" d="M35.527,51.051c-1.572,1.695-2.541,3.958-2.541,6.452c0,5.247,4.253,9.5,9.5,9.5s9.5-4.253,9.5-9.5
			c0-2.494-0.969-4.757-2.541-6.452c-2.199-0.681-4.536-1.048-6.959-1.048S37.726,50.371,35.527,51.051z"/>
	</g>
	<g class="st16">
		<path class="st17" d="M74.976-0.001c-5.317,0-10.501,0.562-15.506,1.614c33.993,7.145,59.516,37.292,59.516,73.411
			c0,36.11-25.523,66.255-59.516,73.401c5.004,1.052,10.189,1.614,15.506,1.614c41.437,0,75.025-33.587,75.025-75.014
			C150.001,33.586,116.413-0.001,74.976-0.001z"/>
	</g>
</g>
</svg>
