<?xml version="1.0" encoding="utf-8"?>
<!-- Generator: Adobe Illustrator 19.2.1, SVG Export Plug-In . SVG Version: 6.00 Build 0)  -->
<svg version="1.1" id="Layer_1" xmlns="http://www.w3.org/2000/svg" xmlns:xlink="http://www.w3.org/1999/xlink" x="0px" y="0px"
	 viewBox="0 0 18 150" style="enable-background:new 0 0 18 150;" xml:space="preserve">
<style type="text/css">
	.st0{fill:#7C634F;}
	.st1{fill:#D0D2D3;}
	.st2{fill:#6ECAF3;}
	.st3{fill:#CED0D1;}
	.st4{fill:#F6CC78;}
	.st5{fill:#BBBDBF;}
	.st6{fill:#58595B;}
	.st7{fill:#FFB4D3;}
	.st8{fill:#A6A8AB;}
	.st9{opacity:0.2;fill:#FFFFFF;}
	.st10{fill:#4F3E31;}
	.st11{fill:#EBEBEC;}
	.st12{fill:#E0E1E2;}
	.st13{fill:#D1D2D4;}
	.st14{fill:#534235;}
	.st15{fill:#4A3A2E;}
	.st16{fill:#F8C1D9;}
	.st17{fill:#FFFFFF;}
	.st18{fill:#E4E5E6;}
	.st19{fill:#836854;}
	.st20{fill:#745D4A;}
	.st21{fill:#F3A5C8;}
	.st22{fill:#66493C;}
	.st23{fill:#6F5043;}
	.st24{fill:#4C3C34;}
	.st25{fill:#F4F4F6;}
	.st26{fill:#F8F8F9;}
	.st27{fill:#EBEBEE;}
	.st28{fill:#DFDFE0;}
	.st29{fill:#86888A;}
	.st30{fill:#A54B94;}
	.st31{fill:#D4BC9B;}
	.st32{fill:#A55498;}
	.st33{fill:#D3A561;}
	.st34{fill:#C7B192;}
	.st35{fill:#DCC6A9;}
	.st36{fill:#D3AD72;}
	.st37{fill:#CAB4FF;}
	.st38{fill:#C6A9FF;}
	.st39{fill:#765C60;}
	.st40{fill:#864481;}
	.st41{fill:#AE8950;}
	.st42{fill:#AA8CE1;}
	.st43{fill:#846255;}
	.st44{fill:#6AAB98;}
	.st45{fill:#F5887A;}
	.st46{fill:#8C685B;}
	.st47{fill:#77584D;}
	.st48{fill:#F69788;}
	.st49{fill:#E07D70;}
	.st50{fill:#7CB0A7;}
	.st51{fill:#619E8D;}
	.st52{fill:#70524E;}
	.st53{fill:#A78AF2;}
	.st54{fill:#50DB7E;}
	.st55{fill:#FBC2F2;}
	.st56{fill:#ECF4F9;}
	.st57{fill:#987EE7;}
	.st58{fill:#FBB0F2;}
	.st59{fill:#AC92FF;}
	.st60{fill:#5C76AA;}
	.st61{fill:#00B8ED;}
	.st62{fill:#EFEFF0;}
	.st63{fill:#CDAA6F;}
	.st64{fill:#5E8664;}
	.st65{fill:#644F3B;}
	.st66{fill:#785E47;}
	.st67{fill:#5C4936;}
	.st68{fill:#6A533E;}
	.st69{fill:#80654D;}
	.st70{fill:#544835;}
	.st71{fill:#D8468E;}
	.st72{fill:#5AD83F;}
	.st73{fill:#47C93F;}
	.st74{fill:#1CB14B;}
	.st75{fill:#D1FF25;}
	.st76{fill:#FF86B5;}
	.st77{fill:#F086B5;}
	.st78{fill:#F0F1F1;}
	.st79{fill:#F580B5;}
	.st80{fill:#E5E6E7;}
	.st81{fill:#E67CAD;}
	.st82{fill:#D46CAD;}
	.st83{fill:#796F6C;}
	.st84{fill:#0E86FE;}
	.st85{fill:#C93131;}
	.st86{fill:#B83131;}
	.st87{fill:#E5E5E5;}
	.st88{fill:#0E7FFB;}
	.st89{fill:#DBDCDD;}
	.st90{fill:none;stroke:#8D382D;stroke-width:4;stroke-linecap:round;stroke-linejoin:round;stroke-miterlimit:10;}
	.st91{fill:none;stroke:#0E6CFE;stroke-width:4;stroke-linecap:round;stroke-linejoin:round;stroke-miterlimit:10;}
	.st92{fill:none;stroke:#BBBDBF;stroke-width:4;stroke-linecap:round;stroke-linejoin:round;stroke-miterlimit:10;}
	.st93{fill:none;stroke:#A6A8AB;stroke-width:4;stroke-linecap:round;stroke-linejoin:round;stroke-miterlimit:10;}
	.st94{fill:#701F2F;}
	.st95{fill:#1C3B71;}
	.st96{fill:#214181;}
	.st97{fill:#621221;}
	.st98{fill:#231F20;}
	.st99{fill:#31DCFF;}
	.st100{fill:#80192B;}
	.st101{fill:#80994A;}
	.st102{fill:#6B192B;}
	.st103{fill:#5E7031;}
	.st104{fill:#58192B;}
	.st105{fill:#68E674;}
	.st106{fill:#FD7C91;}
	.st107{fill:#27A5FF;}
	.st108{fill:#B081E3;}
	.st109{fill:#FFEB26;}
	.st110{fill:#FFF04D;}
	.st111{fill:#FFDE00;}
	.st112{fill:#FFD906;}
	.st113{fill:#EFBD55;}
	.st114{fill:#E2AD41;}
	.st115{fill:#D69E36;}
	.st116{fill:#CE9333;}
	.st117{fill:#F2829E;}
	.st118{fill:#FED77E;}
	.st119{fill:#FECC71;}
	.st120{fill:#FEC471;}
	.st121{fill:#F4CFB4;}
	.st122{fill:#F2729E;}
	.st123{fill:#9FA2A0;}
	.st124{fill:#E8C0A5;}
</style>
<g>
	<polygon class="st8" points="17,133.24 17,137.24 1,137.24 1,133.24 6,133.24 12,133.24 	"/>
	<path class="st117" d="M17,137.24v5c0,3.18-3.58,6.76-8,6.76c-2.21,0-4.21-0.9-5.66-2.19C1.9,145.52,1,143.83,1,142.24v-5H17z"/>
	<path class="st118" d="M17,23v110.24h-5V19.14c0.08,1.41,1.37,2.53,2.97,2.53c0.74,0,1.42-0.25,1.94-0.65
		C16.97,21.43,17,22.02,17,23z"/>
	<path class="st119" d="M12,19.14v114.1H6V19.34c0.02-0.11,0.03-0.22,0.03-0.34c0,1.47,1.33,2.67,2.98,2.67
		c1.64,0,2.98-1.2,2.98-2.67C11.99,19.05,11.99,19.1,12,19.14z"/>
	<path class="st120" d="M6,19.34v113.9H1V23c0-0.98,0.03-1.57,0.09-1.98c0.53,0.41,1.21,0.65,1.95,0.65
		C4.56,21.67,5.82,20.65,6,19.34z"/>
	<path class="st121" d="M12,19.14c-0.01-0.04-0.01-0.09-0.01-0.14c0,1.47-1.34,2.67-2.98,2.67c-1.65,0-2.98-1.2-2.98-2.67
		c0,0.12-0.01,0.23-0.03,0.34c-0.18,1.31-1.44,2.33-2.96,2.33c-0.74,0-1.42-0.24-1.95-0.65c0.04-0.32,0.1-0.53,0.17-0.74L6.15,6.93
		L6.35,7h5.3l0.2-0.07l4.89,13.35c0.07,0.21,0.13,0.42,0.17,0.74c-0.52,0.4-1.2,0.65-1.94,0.65C13.37,21.67,12.08,20.55,12,19.14z"
		/>
	<path class="st6" d="M9.9,1.59l1.95,5.34L11.65,7h-5.3l-0.2-0.07L8.1,1.59C8.46,0.83,9.54,0.83,9.9,1.59z"/>
	<path class="st122" d="M8.34,146.81C6.9,145.52,6,143.83,6,142.24v-5H1v5c0,1.59,0.9,3.28,2.34,4.57C4.79,148.1,6.79,149,9,149
		c0.875,0,1.714-0.145,2.502-0.394C10.298,148.224,9.217,147.59,8.34,146.81z"/>
	<rect x="1" y="133.24" class="st123" width="5" height="4"/>
	<path class="st124" d="M10.214,7H6.35l-0.2-0.07L1.26,20.28c-0.07,0.21-0.13,0.42-0.17,0.74c0.53,0.41,1.21,0.65,1.95,0.65
		c0.862,0,1.632-0.335,2.177-0.858C5.254,20.609,10.214,7,10.214,7z"/>
</g>
<path class="st6" d="M17.925,21.093c0.016-0.166-0.007-0.331-0.074-0.488c-0.044-0.234-0.097-0.446-0.171-0.669L10.804,1.161
	C10.47,0.458,9.779,0.02,9,0.02S7.53,0.458,7.16,1.247L0.31,19.967c-0.071,0.215-0.124,0.434-0.168,0.679
	C0.1,20.757,0.07,20.874,0.07,21c0,0.018,0.009,0.033,0.01,0.051C0.026,21.513,0,22.106,0,23v119.24
	c0,1.855,0.974,3.793,2.675,5.317C4.446,149.132,6.692,150,9,150c5.068,0,9-4.172,9-7.761V23C18,22.133,17.976,21.55,17.925,21.093z
	 M16,23v109.24h-3V22.166c0.584,0.31,1.249,0.504,1.97,0.504c0.349,0,0.692-0.056,1.027-0.14C15.998,22.679,16,22.829,16,23z
	 M6.823,8h4.358l4.582,12.519c-0.25,0.095-0.519,0.151-0.793,0.151c-1.05,0-1.912-0.691-1.97-1.575V19h-0.01c0-0.552-0.447-1-1-1
	s-1,0.448-1,1c0,0.921-0.889,1.67-1.98,1.67S7.03,19.921,7.03,19c0-0.552-0.447-1-1-1s-1,0.448-1,1H5v0.242
	c-0.135,0.803-0.985,1.428-1.96,1.428c-0.281,0-0.548-0.065-0.8-0.16L6.823,8z M7,132.24V22.143c0.593,0.324,1.272,0.526,2.01,0.526
	c0.729,0,1.402-0.198,1.99-0.515V132.24H7z M3.04,22.67c0.713,0,1.376-0.19,1.96-0.495V132.24H2V23c0-0.171,0.002-0.322,0.004-0.471
	C2.341,22.613,2.686,22.67,3.04,22.67z M2,134.24h14v2H2V134.24z M10.449,6H7.536l1.425-4.067L10.449,6z M9,148
	c-1.816,0-3.591-0.688-4.993-1.936C2.75,144.939,2,143.509,2,142.24v-4h14v4C16,144.849,12.878,148,9,148z"/>
</svg>
