<?xml version="1.0" encoding="utf-8"?>
<!-- Generator: Adobe Illustrator 19.2.1, SVG Export Plug-In . SVG Version: 6.00 Build 0)  -->
<svg version="1.1" id="Layer_1" xmlns="http://www.w3.org/2000/svg" xmlns:xlink="http://www.w3.org/1999/xlink" x="0px" y="0px"
	 viewBox="0 0 152.104 150" style="enable-background:new 0 0 152.104 150;" xml:space="preserve">
<style type="text/css">
	.st0{fill:#BD1E2D;}
	.st1{fill:#FFFFFF;}
	.st2{fill:#E5E6E7;}
	.st3{fill:#C32C3B;}
	.st4{fill:#8D180F;}
	.st5{fill:#FEFEFE;}
	.st6{fill:#F0F1F0;}
	.st7{fill:#D0D2D3;}
	.st8{fill:#A2FFA3;}
	.st9{fill:#98F19A;}
	.st10{fill:#C9FFCF;}
	.st11{fill:#BAF0BD;}
	.st12{fill:#569767;}
	.st13{fill:#FFBBF3;}
	.st14{fill:#88DEDE;}
	.st15{fill:#F0F1F1;}
	.st16{fill:#72CED3;}
	.st17{fill:#FFA4F3;}
	.st18{fill:#A6A8AB;}
	.st19{fill:#F1DBBF;}
	.st20{fill:#E0CCB0;}
	.st21{fill:#CAB79C;}
	.st22{fill:#E783B9;}
	.st23{fill:#FFC94D;}
	.st24{fill:#FFD056;}
	.st25{fill:#FFBB15;}
	.st26{fill:#73C6FF;}
	.st27{fill:#73BAFF;}
	.st28{fill:#83CBFF;}
	.st29{fill:#6294BC;}
	.st30{fill:#F26F61;}
	.st31{fill:#FFDB9D;}
	.st32{fill:#E8BC7A;}
	.st33{fill:#FECD85;}
	.st34{fill:#F3F4F4;}
	.st35{fill:#F47B6C;}
	.st36{fill:#E6695C;}
	.st37{fill:#58595B;}
	.st38{fill:#989A9D;}
	.st39{fill:#808184;}
	.st40{fill:#6D6E71;}
	.st41{fill:#4B6984;}
	.st42{fill:#BBBDBF;}
	.st43{fill:#F6F6F6;}
	.st44{fill:#C1C3C4;}
	.st45{fill:#56C681;}
	.st46{fill:#E75C54;}
	.st47{fill:#929497;}
	.st48{fill:#A13021;}
	.st49{fill:#BB6388;}
	.st50{fill:#DCA0FF;}
	.st51{fill:#73DEEF;}
	.st52{fill:#73D1E5;}
	.st53{fill:#DC92FF;}
	.st54{fill:#726097;}
	.st55{fill:#FFF5DC;}
</style>
<path class="st55" d="M151.584,141.249c-1.09-1.922-3.53-2.598-5.452-1.507c-2.479,1.405-5.275,2.185-8.089,2.252
	c-7.511,0.185-13.334-2.014-17.449-13.307c-1.956-6.151-3.898-12.433-5.809-18.754c3.215-1.394,6.185-3.169,8.829-5.417
	c8.311-7.064,12.513-18.006,12.49-32.522c-0.003-2.207-1.794-3.994-4-3.994c-0.002,0-0.004,0-0.006,0
	c-2.209,0.003-3.997,1.797-3.994,4.006c0.019,12.225-3.145,20.866-9.671,26.414c-1.779,1.512-3.784,2.757-5.964,3.786
	C103.284,71.288,86.119,7.13,84.96,2.935c-0.009-0.033-0.027-0.062-0.037-0.094c-0.043-0.142-0.101-0.276-0.16-0.411
	c-0.047-0.11-0.089-0.222-0.145-0.325c-0.062-0.115-0.138-0.221-0.211-0.329c-0.072-0.107-0.139-0.216-0.221-0.315
	c-0.082-0.099-0.176-0.186-0.267-0.277c-0.09-0.09-0.176-0.183-0.273-0.263c-0.101-0.083-0.212-0.152-0.321-0.225
	c-0.106-0.071-0.209-0.146-0.322-0.206c-0.107-0.058-0.222-0.102-0.336-0.15c-0.131-0.056-0.261-0.113-0.398-0.155
	c-0.034-0.01-0.064-0.029-0.099-0.038c-0.084-0.023-0.168-0.026-0.253-0.043c-0.139-0.029-0.277-0.058-0.42-0.072
	c-0.135-0.013-0.267-0.013-0.401-0.013c-0.125,0-0.249,0-0.375,0.012c-0.149,0.014-0.293,0.044-0.439,0.075
	c-0.081,0.017-0.162,0.019-0.243,0.041c-0.034,0.009-0.063,0.027-0.096,0.037c-0.138,0.042-0.269,0.099-0.402,0.156
	c-0.113,0.048-0.228,0.092-0.335,0.15c-0.111,0.06-0.213,0.134-0.318,0.204c-0.111,0.074-0.224,0.144-0.326,0.228
	c-0.096,0.079-0.18,0.171-0.268,0.258c-0.093,0.093-0.189,0.181-0.272,0.283c-0.08,0.097-0.147,0.206-0.218,0.311
	c-0.074,0.109-0.151,0.216-0.213,0.332c-0.056,0.104-0.098,0.215-0.145,0.325c-0.058,0.136-0.117,0.27-0.16,0.412
	c-0.01,0.033-0.027,0.061-0.037,0.094c-1.458,5.277-18.342,70.927-26.508,98.983c-9.93-1.635-18.512-2.985-25.189-2.918
	c-7.128,0.094-13.72,2.98-18.562,8.128c-4.754,5.054-7.188,11.668-6.854,18.624c0.637,13.269,11.546,23.916,24.836,24.24
	c0.305,0.007,0.604,0.011,0.903,0.011c11.943,0,19.674-5.943,24.28-18.639c0.019-0.05,0.036-0.101,0.052-0.151
	c2.115-6.646,4.192-13.438,6.218-20.26c16.816,2.702,35.585,5.141,50.762,1.488c1.913,6.326,3.858,12.614,5.817,18.772
	c0.01,0.03,0.025,0.056,0.035,0.086c0.008,0.022,0.009,0.044,0.017,0.066c4.606,12.695,12.335,18.639,24.279,18.639
	c0.298,0,0.6-0.004,0.903-0.011c4.125-0.1,8.22-1.238,11.84-3.291C151.999,145.611,152.674,143.171,151.584,141.249z
	 M42.607,128.709c-4.114,11.275-9.976,13.468-17.441,13.285c-9.119-0.222-16.604-7.524-17.041-16.625
	c-0.229-4.77,1.438-9.301,4.691-12.76c3.342-3.553,7.902-5.545,12.841-5.609c0.162-0.003,0.326-0.004,0.492-0.004
	c5.729,0,13.736,1.247,22.315,2.655C46.554,116.071,44.597,122.456,42.607,128.709z M58.695,103.215
	C66.784,75.355,80.5,22.019,81.149,19.506c0.223,0.834,14.49,54.157,23.741,85.278C91.582,107.866,74.348,105.705,58.695,103.215z"
	/>
</svg>
