<?xml version="1.0" encoding="utf-8"?>
<!-- Generator: Adobe Illustrator 19.2.1, SVG Export Plug-In . SVG Version: 6.00 Build 0)  -->
<svg version="1.1" id="Layer_1" xmlns="http://www.w3.org/2000/svg" xmlns:xlink="http://www.w3.org/1999/xlink" x="0px" y="0px"
	 viewBox="0 0 29 150.12" style="enable-background:new 0 0 29 150.12;" xml:space="preserve">
<style type="text/css">
	.st0{display:none;fill:none;stroke:#FFFFFF;stroke-width:2;stroke-linecap:round;stroke-miterlimit:10;}
	.st1{fill:#5CDBA9;}
	.st2{fill:#5CDBFF;}
	.st3{fill:#42C18E;}
	.st4{fill:#4DC0FF;}
	.st5{fill:#459571;}
	.st6{fill:#457BA4;}
	.st7{fill:#1A9DED;}
	.st8{fill:#1A71ED;}
	.st9{fill:#58595B;}
	.st10{fill:#F9D35B;}
	.st11{fill:#414042;}
	.st12{opacity:0.4;fill:#414042;}
	.st13{fill:#EDDABB;}
	.st14{fill:#DECDB1;}
	.st15{fill:#F8E7D1;}
	.st16{fill:#C4DFED;}
	.st17{fill:#DEF8FF;}
	.st18{fill:#D1F1FF;}
	.st19{fill:#585963;}
	.st20{fill:#FF868A;}
	.st21{fill:#FF9296;}
	.st22{fill:#EC8287;}
	.st23{fill:#272D38;}
	.st24{fill:#F2F2F2;}
	.st25{fill:#59D6D6;}
	.st26{fill:#56C681;}
	.st27{clip-path:url(#SVGID_2_);fill:#E6E6E6;}
	.st28{fill:#54CBCB;}
	.st29{fill:#52BC7A;}
	.st30{fill:#FFD900;}
	.st31{fill:#FFDE00;}
	.st32{fill:#FFA400;}
	.st33{fill:#47413A;}
	.st34{fill:#FFD16A;}
	.st35{fill:#FF888A;}
	.st36{fill:#E1E2E3;}
	.st37{fill:#45AEFF;}
	.st38{fill:#FFC749;}
	.st39{fill:#FF6A71;}
	.st40{fill:#B7B9BB;}
	.st41{fill:#4585FF;}
	.st42{fill:#52597A;}
	.st43{fill:#699BFF;}
	.st44{fill:#64428F;}
	.st45{fill:#FFFFFF;}
	.st46{fill:#5C8BFF;}
	.st47{fill:#D9D9D9;}
	.st48{fill:#49A86E;}
	.st49{fill:#F020D4;}
	.st50{fill:#B363E7;}
	.st51{fill:#FFD684;}
	.st52{fill:#D420C1;}
	.st53{fill:#FFB876;}
	.st54{fill:#A14DD8;}
	.st55{fill:#8248AA;}
	.st56{fill:#77675D;}
	.st57{fill:#C7AB91;}
	.st58{fill:#B59D84;}
	.st59{fill:#675A51;}
	.st60{fill:#9E8774;}
	.st61{fill:#D4B699;}
	.st62{fill:#554650;}
	.st63{fill:#A47C50;}
	.st64{fill:#BDB096;}
	.st65{fill:#BF956C;}
	.st66{fill:#594A42;}
	.st67{fill:#7C37A3;}
	.st68{fill:#733789;}
	.st69{fill:#94C969;}
	.st70{fill:#70B339;}
	.st71{fill:#AF4FE4;}
	.st72{fill:#CCCECF;}
	.st73{fill:#39C24A;}
	.st74{fill:#4EE94A;}
	.st75{fill:#ECEDED;}
	.st76{fill:#559055;}
	.st77{fill:#C766E5;}
	.st78{fill:#AC33D0;}
	.st79{fill:#E4E5E5;}
	.st80{fill:#F6AB40;}
	.st81{fill:#754C29;}
	.st82{fill:#A2A4A7;}
	.st83{opacity:0.3;fill:#FFFFFF;}
	.st84{fill:#755941;}
	.st85{fill:#5AF1FF;}
	.st86{fill:#91FFFF;}
	.st87{fill:#DFB48C;}
	.st88{fill:#537C6B;}
	.st89{fill:#FFD349;}
	.st90{fill:#FFDF71;}
	.st91{fill:#FFE98C;}
	.st92{fill:#D56A5C;}
	.st93{fill:#A4815D;}
	.st94{fill:#B2594E;}
	.st95{fill:#FFD713;}
	.st96{fill:#ECEDDE;}
	.st97{fill:#DFDCCA;}
	.st98{fill:#F0EDDE;}
	.st99{fill:#6D6E71;}
	.st100{fill:#656669;}
	.st101{fill:#E75C54;}
	.st102{fill:#FFA34D;}
	.st103{fill:#56A86C;}
	.st104{fill:#56B2F4;}
	.st105{fill:#FFD569;}
	.st106{fill:#9773C0;}
	.st107{fill:#8E9093;}
	.st108{fill:#EEEFF0;}
	.st109{fill:#A2F1FF;}
	.st110{fill:#C3F6FF;}
	.st111{fill:#FFD458;}
	.st112{fill:#5CE079;}
	.st113{fill:#FFC658;}
	.st114{fill:#5CC862;}
	.st115{fill:#E6BA72;}
	.st116{fill:#FFA88B;}
	.st117{fill:#CC9E64;}
	.st118{fill:#E6CB83;}
	.st119{fill:#FFDC56;}
	.st120{fill:#F6987E;}
	.st121{fill:#FFB192;}
	.st122{fill:#FFCE49;}
	.st123{fill:#FFE96D;}
	.st124{fill:#FE44F5;}
	.st125{fill:#E82AE8;}
	.st126{fill:#CB00D4;}
	.st127{fill:#F6AB2B;}
	.st128{fill:#C07C2E;}
	.st129{fill:#F2951D;}
	.st130{fill:#BD6C1F;}
</style>
<g>
	<polyline class="st127" points="27,148.12 2,148.12 2,3 27,3 27,148.12 	"/>
	<path class="st128" d="M27,1H2C0.895,1,0,1.896,0,3v145.12c0,1.104,0.896,2,2,2h25c1.105,0,2-0.896,2-2V3C29,1.896,28.105,1,27,1
		 M4,146.12V5h21v4h-9c-1.104,0-2,1.016-2,2.12s0.896,2,2,2h9v4h-5c-1.104,0-2,0.896-2,2c0,1.104,0.896,2,2,2h5v4h-9
		c-1.104,0-2,0.896-2,2c0,1.104,0.896,2,2,2h9v4h-5c-1.104,0-2,0.896-2,2s0.896,2,2,2h5v4.001h-9c-1.104,0-2,0.896-2,2s0.896,2,2,2
		h9v4h-5c-1.104,0-2,0.896-2,2c0,1.104,0.896,2,2,2h5v4h-9c-1.104,0-2,0.896-2,2s0.896,2,2,2h9v4h-5c-1.104,0-2,0.896-2,2
		s0.896,2,2,2h5v4h-9c-1.104,0-2,0.896-2,2c0,1.104,0.896,2,2,2h9v4.001h-5c-1.104,0-2,0.896-2,2c0,1.104,0.896,2,2,2h5v4h-9
		c-1.104,0-2,0.896-2,2c0,1.104,0.896,2,2,2h9v4h-5c-1.104,0-2,0.896-2,2c0,1.104,0.896,2,2,2h5v4h-9c-1.104,0-2,0.896-2,2
		c0,1.104,0.896,2,2,2h9v4h-5c-1.104,0-2,0.896-2,2c0,1.104,0.896,2,2,2h5v4.001h-9c-1.104,0-2,0.896-2,2s0.896,2,2,2h9v4h-5
		c-1.104,0-2,0.896-2,2c0,1.104,0.896,2,2,2h5v4h-5c-1.104,0-2,0.896-2,2c0,1.104,0.896,2,2,2h5v5H4"/>
	<path class="st129" d="M22.652,5H4v141.12h6.349l4.644-53.272C14.399,92.502,14,91.858,14,91.12c0-0.861,0.544-1.595,1.307-1.877
		l1.057-12.124H16c-1.104,0-2-0.896-2-2c0-1.104,0.896-2,2-2h0.713l1.046-12H16c-1.104,0-2-0.896-2-2s0.896-2,2-2h2.108l0.406-4.661
		C18.195,52.104,18,51.635,18,51.12c0-0.64,0.301-1.21,0.768-1.576l0.386-4.424H16c-1.104,0-2-0.896-2-2s0.896-2,2-2h3.502
		l0.349-4.006C18.817,37.039,18,36.174,18,35.12c0-1.104,0.896-2,2-2h0.2l0.349-4H16c-1.104,0-2-0.896-2-2c0-1.104,0.896-2,2-2
		h4.897l0.349-4H20c-1.104,0-2-0.896-2-2c0-1.104,0.896-2,2-2h1.595l0.349-4H16c-1.104,0-2-0.896-2-2S14.896,9,16,9h6.303L22.652,5"
		/>
	<path class="st130" d="M15.307,89.244C14.544,89.525,14,90.259,14,91.12c0,0.737,0.399,1.381,0.993,1.728L15.307,89.244
		 M16.713,73.12H16c-1.104,0-2,0.896-2,2c0,1.104,0.896,2,2,2h0.364L16.713,73.12 M18.108,57.12H16c-1.104,0-2,0.896-2,2
		s0.896,2,2,2h1.759L18.108,57.12 M18.768,49.545C18.301,49.911,18,50.48,18,51.12c0,0.515,0.195,0.984,0.514,1.339L18.768,49.545
		 M19.503,41.12H16c-1.104,0-2,0.896-2,2s0.896,2,2,2h3.154L19.503,41.12 M20.2,33.12H20c-1.104,0-2,0.896-2,2
		c0,1.055,0.816,1.919,1.852,1.995L20.2,33.12 M20.898,25.12H16c-1.104,0-2,0.896-2,2c0,1.104,0.896,2,2,2h4.549L20.898,25.12
		 M21.595,17.12H20c-1.104,0-2,0.896-2,2c0,1.104,0.896,2,2,2h1.246L21.595,17.12 M22.303,9H16c-1.104,0-2,1.016-2,2.12s0.896,2,2,2
		h5.944L22.303,9 M23,1H2C0.896,1,0,1.896,0,3v145.12c0,1.104,0.896,2,2,2h8l0.349-4H4V5h18.652L23,1"/>
</g>
</svg>
